Coordinates
nRows=7
nColumns=38

# SIMM Motion File Header:
name Coordinates
datacolumns 38
datarows 7
otherdata 1
range 0.79000000000000004000 0.79600000000000004000

Units are S.I. units (second, meters, Newtons, ...)
Angles are in degrees.

endheader
time	pelvis_tilt	pelvis_list	pelvis_rotation	pelvis_tx	pelvis_ty	pelvis_tz	hip_flexion_r	hip_adduction_r	hip_rotation_r	knee_angle_r	ankle_angle_r	subtalar_angle_r	mtp_angle_r	hip_flexion_l	hip_adduction_l	hip_rotation_l	knee_angle_l	ankle_angle_l	subtalar_angle_l	mtp_angle_l	lumbar_extension	lumbar_bending	lumbar_rotation	arm_flex_r	arm_add_r	arm_rot_r	elbow_flex_r	pro_sup_r	wrist_flex_r	wrist_dev_r	arm_flex_l	arm_add_l	arm_rot_l	elbow_flex_l	pro_sup_l	wrist_flex_l	wrist_dev_l
      0.79000000000000004000	     -8.17769127121596820000	      0.64538926568794319000	     -3.56496447066501700000	      0.94471101827668647000	      0.98752211591955052000	     -0.29921452581553265000	    -12.23800973880584500000	     -3.01964767974785930000	     -5.22424673716828010000	    -41.19452653638511900000	    -15.02273106654047700000	      0.00000000000009771586	     -0.00000000000025931140	     31.96304455611548800000	      3.65919110390125060000	     -3.96663674568626280000	    -10.18530065372324200000	      2.93320035625758150000	      0.00000000000000671235	      0.00000000000001456529	     -2.10337345306036250000	     -2.17972613253803880000	     15.80840772830796000000	    -12.45016417411253200000	    -30.12356014620547000000	     -6.04844069545126390000	    122.48801617447312000000	     84.09456958820996400000	      0.00000000000001025341	     -0.00000000000000615719	    -42.48970093545087700000	    -17.18785605077306400000	    -12.66177155682194100000	    117.89430593800400000000	    114.96112462237475000000	      0.00000000000000418264	     -0.00000000000001457904
      0.79100000000000004000	     -8.13298536376098550000	      0.61874287736973643000	     -3.61358365055853080000	      0.94485604116246702000	      0.98717043921511749000	     -0.29920504160816086000	    -12.11014454942125200000	     -3.02096843578660930000	     -5.06022803492253730000	    -41.77343403272060800000	    -14.83511473435672000000	      0.00000000000009815656	     -0.00000000000026037926	     31.87351793396276300000	      3.62263198110438990000	     -4.06167319659318870000	    -10.31269334110702700000	      2.80654534929657060000	      0.00000000000000673294	      0.00000000000001456777	     -2.13481522640988080000	     -2.15763567590001990000	     15.77910779558588300000	    -12.50555989180680400000	    -30.11663140152927900000	     -6.04177974226840850000	    122.44378491997288000000	     84.13053634135975800000	      0.00000000000001028992	     -0.00000000000000617695	    -42.43811556063317200000	    -17.17440829329293800000	    -12.67127123059558300000	    117.93824812948050000000	    114.93614447983487000000	      0.00000000000000418736	     -0.00000000000001464178
      0.79200000000000004000	     -8.08785870138130390000	      0.59377372006515539000	     -3.66080238432453480000	      0.94499878001250026000	      0.98681080040087021000	     -0.29919620099557925000	    -11.98024972539172400000	     -3.02307019622303970000	     -4.89962605153362850000	    -42.35589934036553900000	    -14.65165654381945800000	      0.00000000000009859682	     -0.00000000000026144601	     31.78597750858659800000	      3.58821191551952930000	     -4.15816173559249960000	    -10.45081083589041000000	      2.67387375028438970000	      0.00000000000000675557	      0.00000000000001457137	     -2.16663221918235790000	     -2.13782332320161750000	     15.74757341630174200000	    -12.56149148228852800000	    -30.10858477500665500000	     -6.03412249726232550000	    122.39672412256492000000	     84.16684924885161900000	      0.00000000000001032697	     -0.00000000000000619740	    -42.38455722657271000000	    -17.16337905873065500000	    -12.67959350829479200000	    117.98139949494760000000	    114.91247964272327000000	      0.00000000000000419233	     -0.00000000000001470542
      0.79300000000000004000	     -8.04229081741040550000	      0.57053710944863500000	     -3.70646361120743070000	      0.94513895054092190000	      0.98644329296955291000	     -0.29918827993213715000	    -11.84835923864903700000	     -3.02601277035212930000	     -4.74263410561264910000	    -42.94184545913161300000	    -14.47252324946266100000	      0.00000000000009903708	     -0.00000000000026251157	     31.70055997281441800000	      3.55605862075104810000	     -4.25584461409930800000	    -10.59967854405345000000	      2.53581434136873480000	      0.00000000000000677679	      0.00000000000001457996	     -2.19889236490550170000	     -2.12034176369167150000	     15.71366198493887000000	    -12.61791829317967700000	    -30.09943411518374000000	     -6.02549743502526260000	    122.34687680900326000000	     84.20355515496386500000	      0.00000000000001036422	     -0.00000000000000621700	    -42.32900058760413500000	    -17.15477290551389400000	    -12.68677284430756600000	    118.02375344641494000000	    114.89008859394858000000	      0.00000000000000419716	     -0.00000000000001476869
      0.79400000000000004000	     -7.99634318283337640000	      0.54907652251182903000	     -3.75041176040229110000	      0.94527621961005359000	      0.98606790314883208000	     -0.29918155865664148000	    -11.71440667454274900000	     -3.02983881859679550000	     -4.58942472440947480000	    -43.53122405011744400000	    -14.29785363216125100000	      0.00000000000009947706	     -0.00000000000026357580	     31.61751381160304000000	      3.52628354596104860000	     -4.35444512249771170000	    -10.75937460410877800000	      2.39304615631117420000	      0.00000000000000679401	      0.00000000000001458858	     -2.23157685655791750000	     -2.10522374666394410000	     15.67723293460876700000	    -12.67481146119718000000	    -30.08919019199322200000	     -6.01593677484537710000	    122.29428364012185000000	     84.24071080714321600000	      0.00000000000001040091	     -0.00000000000000623575	    -42.27142810622251500000	    -17.14859153929970500000	    -12.69284553128943600000	    118.06529627047141000000	    114.86891858967373000000	      0.00000000000000420248	     -0.00000000000001483151
      0.79500000000000004000	     -7.95014131841095750000	      0.52942586338002018000	     -3.79248985607944360000	      0.94541021470296294000	      0.98568453687904745000	     -0.29917632559601476000	    -11.57824857042899900000	     -3.03457696058122690000	     -4.44015518747954910000	    -44.12400844447551400000	    -14.12776184384211400000	      0.00000000000009991869	     -0.00000000000026463943	     31.53717605643068500000	      3.49898695868916350000	     -4.45366763127824590000	    -10.93002332690231900000	      2.24629107769523360000	      0.00000000000000680472	      0.00000000000001459827	     -2.26460052984246700000	     -2.09248595564734610000	     15.63814443920915800000	    -12.73215031235597600000	    -30.07786139997743300000	     -6.00547613110805760000	    122.23898257724098000000	     84.27838132065510000000	      0.00000000000001043868	     -0.00000000000000625626	    -42.21182677781457200000	    -17.14483461294919000000	    -12.69784922491230900000	    118.10600828356236000000	    114.84890619169214000000	      0.00000000000000420792	     -0.00000000000001489403
      0.79600000000000004000	     -7.90385851344610750000	      0.51161164818088223000	     -3.83253834192819330000	      0.94554053215103295000	      0.98529304495335335000	     -0.29917287879671839000	    -11.43968503885316100000	     -3.04024502780790320000	     -4.29497102219498390000	    -44.72018773683962000000	    -13.96234035890345600000	      0.00000000000010036186	     -0.00000000000026570286	     31.45995090173098400000	      3.47426193195383970000	     -4.55319922321437080000	    -11.11178856656219900000	      2.09630076741972270000	      0.00000000000000681196	      0.00000000000001461126	     -2.29783028748484640000	     -2.08213272928546630000	     15.59625194178246600000	    -12.78991911460181200000	    -30.06545438358999400000	     -5.99415418732203340000	    122.18100854561004000000	     84.31663877740275800000	      0.00000000000001047764	     -0.00000000000000627403	    -42.15018515534679000000	    -17.14350031562206000000	    -12.70182239573599500000	    118.14586465839896000000	    114.82997788443625000000	      0.00000000000000421329	     -0.00000000000001495647
